#!OML:ASF F:\VICON\USERDATA\INSTALL\rory3\rory3.ASF
:FULLY-SPECIFIED
:DEGREES
46
root 0.6440132832121486 17.90928453098537 14.178436175765537 -3.3575870817167157 -4.508972479262971 -1.5158296446636625
lfemur -20.377163045860335 -1.9231308186581957 -21.49661843414126
ltibia 26.761866782717597
lfoot -6.333008064395466 -2.5142246238843855
ltoes 2.9090433740953476
rfemur 0.10698608780068142 4.673039962859373 24.84604240231469
rtibia 64.6092012126159
rfoot 16.80036444213144 1.1598807238534201
rtoes 18.9993394384799
lowerback 9.697193696936047 2.129188747554677 2.567537645080566
upperback 0.06294892193249398 3.1875354979671444 0.49391946369083983
thorax -5.471525870464735 1.5060837295646001 -1.2918756903210977
lowerneck -16.148836790175807 -3.3457661889151113 -1.6370019942888467
upperneck 21.497915086592272 -4.534311580566889 1.0499722112949632
head 9.549011155089287 -2.1098838161022293 -0.01078134996413918
lclavicle -4.533851670627646e-16 -7.764982111247343e-16
lhumerus -39.52378952152486 13.739517444885719 76.80636776393307
lradius 17.218993170866323
lwrist 0.6567283363231198
lhand -26.37606962852503 21.56768869199177
lfingers 7.12502
lthumb 0.25414694495307977 51.786736100851975
rclavicle -4.533851669812809e-16 -7.764982110615213e-16
rhumerus -24.398288023998443 -15.601015686777085 -80.83094463204392
rradius 28.39789193493102
rwrist 1.9280273090093312
rhand -18.289452033398454 23.00901572782674
rfingers 7.12502
rthumb 7.937660636746116 -6.8732192509382575
47
root 0.6732785775603193 17.937016616646584 14.876427678131316 -3.658961096507134 -4.67948198873727 -0.5616410878464149
lfemur -17.247225428751626 -2.374102871707846 -23.073491740876747
ltibia 26.822919791341498
lfoot -7.648196534807056 -2.2688338590310186
ltoes 3.2578583816463538
rfemur -5.43886024666746 4.387288580044098 23.574344350279336
rtibia 72.63707796949458
rfoot 12.373197488031442 -2.2976711846445137
rtoes 18.295221548726747
lowerback 10.189603853634566 1.8883309566887878 1.54158898751597
upperback 0.1436211823246341 2.767677125467249 0.3537248619633506
thorax -5.610038142278915 1.309002149743152 -0.8443034464207262
lowerneck -16.164391867183344 -3.2474724944904976 -1.7238063531363141
upperneck 21.70556111113521 -4.3749922102636924 1.0628174968748034
head 9.624207308981866 -2.049019363355707 0.037685430541669736
lclavicle -4.533851670700307e-16 -7.764982111286549e-16
lhumerus -38.730108408337195 12.017829189258187 77.45335403769398
lradius 18.426088122170853
lwrist 2.4961068001625835
lhand -27.622001694705364 19.72245994269431
lfingers 7.12502
lthumb -0.8702382640301934 50.15970096110754
rclavicle -4.533851669726712e-16 -7.764982110530787e-16
rhumerus -24.75185130008387 -16.375356432183267 -80.58747176516175
rradius 27.91933603003368
rwrist 2.7455765514277792
rhand -18.153604647638094 22.901855137817257
rfingers 7.12502
rthumb 8.047903913773839 -7.022312318097252
48
root 0.699590269148515 17.958896301675175 15.62160947550333 -3.8405941346340207 -4.437294706338033 -0.10156327759881778
lfemur -13.928570676357673 -2.4684092114309513 -24.014863597310786
ltibia 26.40684757747772
lfoot -8.971440853893643 -1.5414229014048575
ltoes 2.524663119590803
rfemur -10.293853325220923 4.145295250112347 22.70833295893589
rtibia 77.42632926166928
rfoot 6.584676588934544 -4.67105390363033
rtoes 15.338666935892476
lowerback 10.547434670510683 1.5142935284925538 1.101270409315803
upperback 0.2388680038536819 2.274692910963209 0.3896560765666949
thorax -5.614050848915501 1.0797633485336253 -0.5027377730074798
lowerneck -16.229853273891905 -3.1144755246421294 -1.8294535184145708
upperneck 21.910455412666167 -4.126336812649947 0.9682013982768127
head 9.694707564588926 -1.9436412945868697 0.0430649011573095
lclavicle -4.533851670660591e-16 -7.764982111240464e-16
lhumerus -37.57779298004484 10.54633708442407 77.98734711814146
lradius 19.51696653363163
lwrist 3.5298490084920076
lhand -28.890606001633603 18.55232092153134
lfingers 7.12502
lthumb -2.2283543133950428 48.6332859483955
rclavicle -4.533851669695619e-16 -7.764982110490438e-16
rhumerus -25.72941286397319 -17.054869274629876 -80.17997447282588
rradius 27.848424507789844
rwrist 2.734575589729432
rhand -18.160570945562124 22.527823857622533
rfingers 7.12502
rthumb 8.104397228561862 -7.313795472271532
49
root 0.7083810194795985 17.952076947581055 16.4960358352727 -3.955856993000865 -3.9777853437409867 0.3610581137520015
lfemur -10.830591182665874 -2.491973479966398 -25.05682952702219
ltibia 25.885286498694075
lfoot -10.197572513757251 -1.1131451284619969
ltoes 2.0172417685291006
rfemur -14.86089312627507 3.852513945301137 22.05517659542284
rtibia 79.11247213199897
rfoot 1.0504953372599086 -5.520457526035494
rtoes 13.163714854789362
lowerback 10.904117278585472 1.0187620284443966 0.3741496860178868
upperback 0.31064870652059573 1.5647064498907937 0.47043056997749044
thorax -5.673432525219536 0.7495337506161686 0.0840557426159555
lowerneck -16.24234126090848 -2.9926886700278885 -1.9598811521424726
upperneck 22.108005288762662 -3.8796104742165687 0.8327028400988867
head 9.768440859096492 -1.8510631656452594 0.049843758566123525
lclavicle -4.533851670762146e-16 -7.764982111304485e-16
lhumerus -35.910780788868074 9.104632260056409 78.54223216007864
lradius 20.513903564847887
lwrist 4.389791541269924
lhand -29.91529837552677 16.815125827247943
lfingers 7.12502
lthumb -3.128403715653172 46.95045253672329
rclavicle -4.533851669651404e-16 -7.764982110441844e-16
rhumerus -26.650437939844267 -17.374748426087088 -79.8467478526849
rradius 28.158100182082684
rwrist 1.9643179497400016
rhand -18.18345127251098 22.13997724780063
rfingers 7.12502
rthumb 8.127161410058608 -7.626802083609044
50
root 0.7190335514174349 17.92313142383678 17.307381968098493 -4.056709594175651 -3.2326760674231316 0.87284667746296
lfemur -8.376171651532102 -2.9920890602312475 -26.156973556377068
ltibia 25.820358630091484
lfoot -11.983154581491089 0.06960616478875625
ltoes 1.6841545666886133
rfemur -19.38916805246268 3.608600105706881 21.533743274288096
rtibia 78.34532067029014
rfoot -3.851650682553343 -5.778472258904951
rtoes 9.996483523053932
lowerback 11.225031245577073 0.5525995637184038 -0.307215908804775
upperback 0.3751134735962375 0.8682003238829873 0.574809034658154
thorax -5.690225889981913 0.42758940726625005 0.6177222507055292
lowerneck -16.31225385694439 -2.9041274305335527 -2.1000720068897296
upperneck 22.13708627275306 -3.661932317851771 0.6729961832744591
head 9.773752314173086 -1.7756104949239597 0.04314604064729513
lclavicle -4.533851670729691e-16 -7.764982111267633e-16
lhumerus -33.92516307873975 7.317696389690526 79.15400316707137
lradius 21.496728600141406
lwrist 5.2688077736406544
lhand -30.002309867463087 16.42971021174543
lfingers 7.12502
lthumb -3.124169384851359 46.75080057049205
rclavicle -4.533851669690094e-16 -7.764982110460128e-16
rhumerus -27.793700186175087 -17.361630744797246 -79.52290826634507
rradius 28.70586456238913
rwrist 0.6852886569547776
rhand -18.241137390829877 21.89870831373072
rfingers 7.12502
rthumb 8.052906434961377 -7.890787302510602
